ffmpeg started on 2025-04-30 at 18:25:48
Report written to "D:\Convert\FFMetrics\reports\ssim_report-6.txt"
Log level: 32
Command line:
ffmpeg -hide_banner -nostdin -i "G:\\\xc0\xed\xe8\xec\xe5\\\xce\xed\xe3\xee\xe8\xed\xe3\xe8\\!_35_\xcb\xe5\xf2\xee_2024\\JamClub\\\xcc\xe5\xf7 \xe8 \xe6\xe5\xe7\xeb \xc2\xe8\xf1\xf2\xee\xf0\xe8\xe8\\JamClub_Tsue_to_Tsurugi_no_Wistoria_12_1080p_HEVC.mkv" -i "G:\\\xc0\xed\xe8\xec\xe5\\\xce\xed\xe3\xee\xe8\xed\xe3\xe8\\!_35_\xcb\xe5\xf2\xee_2024\\JamClub\\\xcc\xe5\xf7 \xe8 \xe6\xe5\xe7\xeb \xc2\xe8\xf1\xf2\xee\xf0\xe8\xe8\\JamClub_Tsue_to_Tsurugi_no_Wistoria_12_1080p.mp4" -lavfi "[0:v]settb=AVTB,setpts=PTS-STARTPTS,format=pix_fmts=yuv420p10,fps=24000/1001,scale=1920:1080:flags=bicubic[main];[1:v]settb=AVTB,setpts=PTS-STARTPTS,format=pix_fmts=yuv420p,fps=24000/1001,scale=1920:1080:flags=bicubic[ref];[main][ref]ssim=eof_action=endall:stats_file='D\\:/Convert/FFMetrics/logs/ssim_logfile-6.txt'" -f null -
Input #0, matroska,webm, from 'G:\Аниме\Онгоинги\!_35_Лето_2024\JamClub\Меч и жезл Вистории\JamClub_Tsue_to_Tsurugi_no_Wistoria_12_1080p_HEVC.mkv':
  Metadata:
    COMPATIBLE_BRANDS: isomiso2avc1mp41
    MAJOR_BRAND     : isom
    MINOR_VERSION   : 512
    ENCODER         : Lavf61.7.100
  Duration: 00:24:08.36, start: -0.001000, bitrate: 1519 kb/s
  Stream #0:0: Video: hevc (Main 10), yuv420p10le(tv, bt709, progressive), 1920x1080 [SAR 1:1 DAR 16:9], 23.98 fps, 23.98 tbr, 1k tbn (default)
      Metadata:
        HANDLER_NAME    : VideoHandler
        VENDOR_ID       : [0][0][0][0]
        ENCODER         : Lavc61.19.100 libx265
        BPS             : 1322345
        DURATION        : 00:24:08.279708333
        NUMBER_OF_FRAMES: 34724
        NUMBER_OF_BYTES : 239390613
        _STATISTICS_WRITING_APP: mkvpropedit v66.0.0 ('Josie') 64-bit
        _STATISTICS_WRITING_DATE_UTC: 2025-04-29 15:07:37
        _STATISTICS_TAGS: BPS DURATION NUMBER_OF_FRAMES NUMBER_OF_BYTES
  Stream #0:1(eng): Audio: aac (LC), 48000 Hz, stereo, fltp (default)
      Metadata:
        HANDLER_NAME    : SoundHandler
        VENDOR_ID       : [0][0][0][0]
        ENCODER         : Lavc61.19.100 aac
        BPS             : 192654
        DURATION        : 00:24:08.323000000
        NUMBER_OF_FRAMES: 67891
        NUMBER_OF_BYTES : 34878158
        _STATISTICS_WRITING_APP: mkvpropedit v66.0.0 ('Josie') 64-bit
        _STATISTICS_WRITING_DATE_UTC: 2025-04-29 15:07:37
        _STATISTICS_TAGS: BPS DURATION NUMBER_OF_FRAMES NUMBER_OF_BYTES
Input #1, mov,mp4,m4a,3gp,3g2,mj2, from 'G:\Аниме\Онгоинги\!_35_Лето_2024\JamClub\Меч и жезл Вистории\JamClub_Tsue_to_Tsurugi_no_Wistoria_12_1080p.mp4':
  Metadata:
    major_brand     : isom
    minor_version   : 512
    compatible_brands: isomiso2avc1mp41
    encoder         : Lavf60.16.100
  Duration: 00:24:08.34, start: 0.000000, bitrate: 4612 kb/s
  Stream #1:0[0x1](und): Video: h264 (High) (avc1 / 0x31637661), yuv420p(progressive), 1920x1080 [SAR 1:1 DAR 16:9], 4414 kb/s, 23.98 fps, 23.98 tbr, 90k tbn (default)
      Metadata:
        handler_name    : VideoHandler
        vendor_id       : [0][0][0][0]
  Stream #1:1[0x2](eng): Audio: aac (LC) (mp4a / 0x6134706D), 48000 Hz, stereo, fltp, 191 kb/s (default)
      Metadata:
        handler_name    : SoundHandler
        vendor_id       : [0][0][0][0]
Stream mapping:
  Stream #0:0 (hevc) -> settb:default
  Stream #1:0 (h264) -> settb:default
  ssim:default -> Stream #0:0 (wrapped_avframe)
  Stream #0:1 -> #0:1 (aac (native) -> pcm_s16le (native))
Output #0, null, to 'pipe:':
  Metadata:
    COMPATIBLE_BRANDS: isomiso2avc1mp41
    MAJOR_BRAND     : isom
    MINOR_VERSION   : 512
    encoder         : Lavf61.7.100
  Stream #0:0: Video: wrapped_avframe, yuv420p10le(tv, bt709, progressive), 1920x1080 [SAR 1:1 DAR 16:9], q=2-31, 200 kb/s, 23.98 fps, 23.98 tbn
      Metadata:
        encoder         : Lavc61.19.100 wrapped_avframe
  Stream #0:1(eng): Audio: pcm_s16le, 48000 Hz, stereo, s16, 1536 kb/s (default)
      Metadata:
        HANDLER_NAME    : SoundHandler
        VENDOR_ID       : [0][0][0][0]
        _STATISTICS_TAGS: BPS DURATION NUMBER_OF_FRAMES NUMBER_OF_BYTES
        BPS             : 192654
        DURATION        : 00:24:08.323000000
        NUMBER_OF_FRAMES: 67891
        NUMBER_OF_BYTES : 34878158
        _STATISTICS_WRITING_APP: mkvpropedit v66.0.0 ('Josie') 64-bit
        _STATISTICS_WRITING_DATE_UTC: 2025-04-29 15:07:37
        encoder         : Lavc61.19.100 pcm_s16le
frame=  113 fps=0.0 q=-0.0 size=N/A time=00:00:04.71 bitrate=N/A speed=9.17x    frame=  280 fps=270 q=-0.0 size=N/A time=00:00:11.67 bitrate=N/A speed=11.3x    frame=  477 fps=309 q=-0.0 size=N/A time=00:00:19.89 bitrate=N/A speed=12.9x    frame=  707 fps=343 q=-0.0 size=N/A time=00:00:29.48 bitrate=N/A speed=14.3x    frame=  929 fps=359 q=-0.0 size=N/A time=00:00:38.74 bitrate=N/A speed=  15x    frame= 1140 fps=368 q=-0.0 size=N/A time=00:00:47.54 bitrate=N/A speed=15.3x    frame= 1401 fps=388 q=-0.0 size=N/A time=00:00:58.43 bitrate=N/A speed=16.2x    frame= 1673 fps=404 q=-0.0 size=N/A time=00:01:09.77 bitrate=N/A speed=16.9x    frame= 1901 fps=409 q=-0.0 size=N/A time=00:01:19.28 bitrate=N/A speed=17.1x    frame= 2163 fps=419 q=-0.0 size=N/A time=00:01:30.21 bitrate=N/A speed=17.5x    frame= 2460 fps=433 q=-0.0 size=N/A time=00:01:42.60 bitrate=N/A speed=18.1x    frame= 2741 fps=443 q=-0.0 size=N/A time=00:01:54.32 bitrate=N/A speed=18.5x    frame= 3017 fps=449 q=-0.0 size=N/A time=00:02:05.83 bitrate=N/A speed=18.7x    frame= 3239 fps=448 q=-0.0 size=N/A time=00:02:15.09 bitrate=N/A speed=18.7x    frame= 3438 fps=444 q=-0.0 size=N/A time=00:02:23.39 bitrate=N/A speed=18.5x    frame= 3655 fps=442 q=-0.0 size=N/A time=00:02:32.44 bitrate=N/A speed=18.5x    frame= 3888 fps=443 q=-0.0 size=N/A time=00:02:42.16 bitrate=N/A speed=18.5x    frame= 4114 fps=443 q=-0.0 size=N/A time=00:02:51.58 bitrate=N/A speed=18.5x    frame= 4274 fps=436 q=-0.0 size=N/A time=00:02:58.26 bitrate=N/A speed=18.2x    frame= 4472 fps=434 q=-0.0 size=N/A time=00:03:06.51 bitrate=N/A speed=18.1x    frame= 4654 fps=430 q=-0.0 size=N/A time=00:03:14.11 bitrate=N/A speed=17.9x    frame= 4828 fps=426 q=-0.0 size=N/A time=00:03:21.36 bitrate=N/A speed=17.8x    frame= 5054 fps=426 q=-0.0 size=N/A time=00:03:30.79 bitrate=N/A speed=17.8x    frame= 5278 fps=426 q=-0.0 size=N/A time=00:03:40.13 bitrate=N/A speed=17.8x    frame= 5503 fps=427 q=-0.0 size=N/A time=00:03:49.52 bitrate=N/A speed=17.8x    frame= 5730 fps=427 q=-0.0 size=N/A time=00:03:58.98 bitrate=N/A speed=17.8x    frame= 5916 fps=425 q=-0.0 size=N/A time=00:04:06.74 bitrate=N/A speed=17.7x    frame= 6095 fps=422 q=-0.0 size=N/A time=00:04:14.21 bitrate=N/A speed=17.6x    frame= 6288 fps=421 q=-0.0 size=N/A time=00:04:22.26 bitrate=N/A speed=17.5x    frame= 6460 fps=417 q=-0.0 size=N/A time=00:04:29.43 bitrate=N/A speed=17.4x    frame= 6619 fps=414 q=-0.0 size=N/A time=00:04:36.06 bitrate=N/A speed=17.3x    frame= 6823 fps=413 q=-0.0 size=N/A time=00:04:44.57 bitrate=N/A speed=17.2x    frame= 7015 fps=412 q=-0.0 size=N/A time=00:04:52.58 bitrate=N/A speed=17.2x    frame= 7245 fps=413 q=-0.0 size=N/A time=00:05:02.17 bitrate=N/A speed=17.2x    frame= 7463 fps=414 q=-0.0 size=N/A time=00:05:11.26 bitrate=N/A speed=17.2x    frame= 7659 fps=412 q=-0.0 size=N/A time=00:05:19.44 bitrate=N/A speed=17.2x    frame= 7843 fps=411 q=-0.0 size=N/A time=00:05:27.11 bitrate=N/A speed=17.1x    frame= 8037 fps=410 q=-0.0 size=N/A time=00:05:35.20 bitrate=N/A speed=17.1x    frame= 8251 fps=410 q=-0.0 size=N/A time=00:05:44.13 bitrate=N/A speed=17.1x    frame= 8484 fps=411 q=-0.0 size=N/A time=00:05:53.85 bitrate=N/A speed=17.1x    frame= 8702 fps=412 q=-0.0 size=N/A time=00:06:02.94 bitrate=N/A speed=17.2x    frame= 8882 fps=410 q=-0.0 size=N/A time=00:06:10.45 bitrate=N/A speed=17.1x    frame= 9109 fps=411 q=-0.0 size=N/A time=00:06:19.92 bitrate=N/A speed=17.1x    frame= 9321 fps=411 q=-0.0 size=N/A time=00:06:28.76 bitrate=N/A speed=17.1x    frame= 9532 fps=411 q=-0.0 size=N/A time=00:06:37.56 bitrate=N/A speed=17.1x    frame= 9714 fps=409 q=-0.0 size=N/A time=00:06:45.15 bitrate=N/A speed=17.1x    frame= 9905 fps=409 q=-0.0 size=N/A time=00:06:53.12 bitrate=N/A speed=  17x    frame=10112 fps=408 q=-0.0 size=N/A time=00:07:01.75 bitrate=N/A speed=  17x    frame=10320 fps=408 q=-0.0 size=N/A time=00:07:10.43 bitrate=N/A speed=  17x    frame=10522 fps=408 q=-0.0 size=N/A time=00:07:18.85 bitrate=N/A speed=  17x    frame=10745 fps=409 q=-0.0 size=N/A time=00:07:28.15 bitrate=N/A speed=  17x    frame=10972 fps=409 q=-0.0 size=N/A time=00:07:37.62 bitrate=N/A speed=17.1x    frame=11188 fps=409 q=-0.0 size=N/A time=00:07:46.63 bitrate=N/A speed=17.1x    frame=11385 fps=409 q=-0.0 size=N/A time=00:07:54.84 bitrate=N/A speed=17.1x    frame=11579 fps=408 q=-0.0 size=N/A time=00:08:02.94 bitrate=N/A speed=  17x    frame=11772 fps=408 q=-0.0 size=N/A time=00:08:10.99 bitrate=N/A speed=  17x    frame=11969 fps=407 q=-0.0 size=N/A time=00:08:19.20 bitrate=N/A speed=  17x    frame=12168 fps=407 q=-0.0 size=N/A time=00:08:27.50 bitrate=N/A speed=  17x    frame=12408 fps=408 q=-0.0 size=N/A time=00:08:37.51 bitrate=N/A speed=  17x    frame=12657 fps=409 q=-0.0 size=N/A time=00:08:47.90 bitrate=N/A speed=17.1x    frame=12922 fps=411 q=-0.0 size=N/A time=00:08:58.95 bitrate=N/A speed=17.1x    frame=13164 fps=412 q=-0.0 size=N/A time=00:09:09.04 bitrate=N/A speed=17.2x    frame=13401 fps=412 q=-0.0 size=N/A time=00:09:18.93 bitrate=N/A speed=17.2x    frame=13600 fps=412 q=-0.0 size=N/A time=00:09:27.23 bitrate=N/A speed=17.2x    frame=13799 fps=412 q=-0.0 size=N/A time=00:09:35.53 bitrate=N/A speed=17.2x    frame=14050 fps=413 q=-0.0 size=N/A time=00:09:46.00 bitrate=N/A speed=17.2x    frame=14321 fps=415 q=-0.0 size=N/A time=00:09:57.30 bitrate=N/A speed=17.3x    frame=14600 fps=416 q=-0.0 size=N/A time=00:10:08.94 bitrate=N/A speed=17.4x    frame=14891 fps=419 q=-0.0 size=N/A time=00:10:21.07 bitrate=N/A speed=17.5x    frame=15170 fps=420 q=-0.0 size=N/A time=00:10:32.71 bitrate=N/A speed=17.5x    frame=15424 fps=421 q=-0.0 size=N/A time=00:10:43.30 bitrate=N/A speed=17.6x    frame=15695 fps=423 q=-0.0 size=N/A time=00:10:54.61 bitrate=N/A speed=17.6x    frame=15944 fps=424 q=-0.0 size=N/A time=00:11:04.99 bitrate=N/A speed=17.7x    frame=16224 fps=425 q=-0.0 size=N/A time=00:11:16.67 bitrate=N/A speed=17.7x    frame=16477 fps=426 q=-0.0 size=N/A time=00:11:27.22 bitrate=N/A speed=17.8x    frame=16759 fps=428 q=-0.0 size=N/A time=00:11:38.98 bitrate=N/A speed=17.8x    frame=17045 fps=429 q=-0.0 size=N/A time=00:11:50.91 bitrate=N/A speed=17.9x    frame=17311 fps=430 q=-0.0 size=N/A time=00:12:02.01 bitrate=N/A speed=17.9x    frame=17593 fps=432 q=-0.0 size=N/A time=00:12:13.77 bitrate=N/A speed=  18x    frame=17886 fps=433 q=-0.0 size=N/A time=00:12:25.99 bitrate=N/A speed=18.1x    frame=18158 fps=435 q=-0.0 size=N/A time=00:12:37.33 bitrate=N/A speed=18.1x    frame=18447 fps=436 q=-0.0 size=N/A time=00:12:49.39 bitrate=N/A speed=18.2x    frame=18737 fps=438 q=-0.0 size=N/A time=00:13:01.48 bitrate=N/A speed=18.3x    frame=18967 fps=438 q=-0.0 size=N/A time=00:13:11.08 bitrate=N/A speed=18.3x    frame=19211 fps=438 q=-0.0 size=N/A time=00:13:21.25 bitrate=N/A speed=18.3x    frame=19477 fps=439 q=-0.0 size=N/A time=00:13:32.35 bitrate=N/A speed=18.3x    frame=19748 fps=440 q=-0.0 size=N/A time=00:13:43.65 bitrate=N/A speed=18.4x    frame=20018 fps=441 q=-0.0 size=N/A time=00:13:54.91 bitrate=N/A speed=18.4x    frame=20301 fps=442 q=-0.0 size=N/A time=00:14:06.72 bitrate=N/A speed=18.4x    frame=20583 fps=444 q=-0.0 size=N/A time=00:14:18.48 bitrate=N/A speed=18.5x    frame=20856 fps=445 q=-0.0 size=N/A time=00:14:29.86 bitrate=N/A speed=18.5x    frame=21112 fps=445 q=-0.0 size=N/A time=00:14:40.54 bitrate=N/A speed=18.6x    frame=21358 fps=445 q=-0.0 size=N/A time=00:14:50.80 bitrate=N/A speed=18.6x    frame=21567 fps=445 q=-0.0 size=N/A time=00:14:59.52 bitrate=N/A speed=18.6x    frame=21831 fps=446 q=-0.0 size=N/A time=00:15:10.53 bitrate=N/A speed=18.6x    frame=22072 fps=446 q=-0.0 size=N/A time=00:15:20.58 bitrate=N/A speed=18.6x    frame=22236 fps=444 q=-0.0 size=N/A time=00:15:27.42 bitrate=N/A speed=18.5x    frame=22467 fps=445 q=-0.0 size=N/A time=00:15:37.06 bitrate=N/A speed=18.5x    frame=22711 fps=445 q=-0.0 size=N/A time=00:15:47.23 bitrate=N/A speed=18.6x    frame=22974 fps=446 q=-0.0 size=N/A time=00:15:58.20 bitrate=N/A speed=18.6x    frame=23264 fps=447 q=-0.0 size=N/A time=00:16:10.30 bitrate=N/A speed=18.6x    frame=23556 fps=448 q=-0.0 size=N/A time=00:16:22.48 bitrate=N/A speed=18.7x    frame=23838 fps=449 q=-0.0 size=N/A time=00:16:34.24 bitrate=N/A speed=18.7x    frame=24109 fps=450 q=-0.0 size=N/A time=00:16:45.54 bitrate=N/A speed=18.8x    frame=24341 fps=450 q=-0.0 size=N/A time=00:16:55.22 bitrate=N/A speed=18.7x    frame=24600 fps=450 q=-0.0 size=N/A time=00:17:06.02 bitrate=N/A speed=18.8x    frame=24888 fps=451 q=-0.0 size=N/A time=00:17:18.03 bitrate=N/A speed=18.8x    frame=25154 fps=452 q=-0.0 size=N/A time=00:17:29.13 bitrate=N/A speed=18.8x    frame=25433 fps=453 q=-0.0 size=N/A time=00:17:40.76 bitrate=N/A speed=18.9x    frame=25712 fps=453 q=-0.0 size=N/A time=00:17:52.40 bitrate=N/A speed=18.9x    frame=25977 fps=454 q=-0.0 size=N/A time=00:18:03.45 bitrate=N/A speed=18.9x    frame=26265 fps=455 q=-0.0 size=N/A time=00:18:15.46 bitrate=N/A speed=  19x    frame=26514 fps=455 q=-0.0 size=N/A time=00:18:25.85 bitrate=N/A speed=  19x    frame=26766 fps=455 q=-0.0 size=N/A time=00:18:36.36 bitrate=N/A speed=  19x    frame=27039 fps=456 q=-0.0 size=N/A time=00:18:47.75 bitrate=N/A speed=  19x    frame=27323 fps=457 q=-0.0 size=N/A time=00:18:59.59 bitrate=N/A speed=  19x    frame=27607 fps=458 q=-0.0 size=N/A time=00:19:11.44 bitrate=N/A speed=19.1x    frame=27835 fps=457 q=-0.0 size=N/A time=00:19:20.95 bitrate=N/A speed=19.1x    frame=28083 fps=457 q=-0.0 size=N/A time=00:19:31.29 bitrate=N/A speed=19.1x    frame=28346 fps=458 q=-0.0 size=N/A time=00:19:42.26 bitrate=N/A speed=19.1x    frame=28609 fps=458 q=-0.0 size=N/A time=00:19:53.23 bitrate=N/A speed=19.1x    frame=28871 fps=459 q=-0.0 size=N/A time=00:20:04.16 bitrate=N/A speed=19.1x    frame=29075 fps=458 q=-0.0 size=N/A time=00:20:12.66 bitrate=N/A speed=19.1x    frame=29274 fps=458 q=-0.0 size=N/A time=00:20:20.96 bitrate=N/A speed=19.1x    frame=29478 fps=457 q=-0.0 size=N/A time=00:20:29.47 bitrate=N/A speed=19.1x    frame=29720 fps=457 q=-0.0 size=N/A time=00:20:39.57 bitrate=N/A speed=19.1x    frame=29943 fps=457 q=-0.0 size=N/A time=00:20:48.87 bitrate=N/A speed=19.1x    frame=30146 fps=456 q=-0.0 size=N/A time=00:20:57.33 bitrate=N/A speed=  19x    frame=30367 fps=456 q=-0.0 size=N/A time=00:21:06.55 bitrate=N/A speed=  19x    frame=30627 fps=456 q=-0.0 size=N/A time=00:21:17.40 bitrate=N/A speed=  19x    frame=30905 fps=457 q=-0.0 size=N/A time=00:21:28.99 bitrate=N/A speed=19.1x    frame=31138 fps=457 q=-0.0 size=N/A time=00:21:38.71 bitrate=N/A speed=19.1x    frame=31408 fps=458 q=-0.0 size=N/A time=00:21:50.01 bitrate=N/A speed=19.1x    frame=31686 fps=458 q=-0.0 size=N/A time=00:22:01.57 bitrate=N/A speed=19.1x    frame=31946 fps=458 q=-0.0 size=N/A time=00:22:12.41 bitrate=N/A speed=19.1x    frame=32178 fps=458 q=-0.0 size=N/A time=00:22:22.09 bitrate=N/A speed=19.1x    frame=32437 fps=459 q=-0.0 size=N/A time=00:22:32.89 bitrate=N/A speed=19.1x    frame=32692 fps=459 q=-0.0 size=N/A time=00:22:43.52 bitrate=N/A speed=19.1x    frame=32925 fps=459 q=-0.0 size=N/A time=00:22:53.24 bitrate=N/A speed=19.1x    frame=33173 fps=459 q=-0.0 size=N/A time=00:23:03.59 bitrate=N/A speed=19.1x    frame=33386 fps=459 q=-0.0 size=N/A time=00:23:12.47 bitrate=N/A speed=19.1x    frame=33603 fps=458 q=-0.0 size=N/A time=00:23:21.52 bitrate=N/A speed=19.1x    frame=33830 fps=458 q=-0.0 size=N/A time=00:23:30.99 bitrate=N/A speed=19.1x    frame=34043 fps=458 q=-0.0 size=N/A time=00:23:39.87 bitrate=N/A speed=19.1x    frame=34221 fps=457 q=-0.0 size=N/A time=00:23:47.30 bitrate=N/A speed=19.1x    frame=34452 fps=457 q=-0.0 size=N/A time=00:23:56.93 bitrate=N/A speed=19.1x    frame=34649 fps=457 q=-0.0 size=N/A time=00:24:05.15 bitrate=N/A speed=  19x    [Parsed_ssim_10 @ 00000200fa9dff40] SSIM Y:0.993587 (21.929108) U:0.993095 (21.608159) V:0.992551 (21.278747) All:0.993332 (21.759996)
[out#0/null @ 00000200f529e040] video:14920KiB audio:271564KiB subtitle:0KiB other streams:0KiB global headers:0KiB muxing overhead: unknown
frame=34724 fps=457 q=-0.0 Lsize=N/A time=00:24:08.28 bitrate=N/A speed=  19x    
